<svg id="visual" viewBox="0 0 900 600" width="900" height="600" xmlns="http://www.w3.org/2000/svg" xmlns:xlink="http://www.w3.org/1999/xlink" version="1.1"><rect x="0" y="0" width="900" height="600" fill="#002233"></rect><path d="M0 424L21.5 424.5C43 425 86 426 128.8 434.7C171.7 443.3 214.3 459.7 257.2 465.7C300 471.7 343 467.3 385.8 462.2C428.7 457 471.3 451 514.2 444.2C557 437.3 600 429.7 642.8 434.3C685.7 439 728.3 456 771.2 457.3C814 458.7 857 444.3 878.5 437.2L900 430L900 601L878.5 601C857 601 814 601 771.2 601C728.3 601 685.7 601 642.8 601C600 601 557 601 514.2 601C471.3 601 428.7 601 385.8 601C343 601 300 601 257.2 601C214.3 601 171.7 601 128.8 601C86 601 43 601 21.5 601L0 601Z" fill="#0066FF" stroke-linecap="round" stroke-linejoin="miter"></path></svg>